<svg width="130" height="130" viewBox="0 0 130 130" fill="none" xmlns="http://www.w3.org/2000/svg">
<rect width="130" height="130" fill="#FFDE00"/>
<path d="M41 90.1481H44.7985C46.749 90.1481 47.981 88.9037 47.981 86.9333V42.963C47.981 40.9926 46.749 39.7481 44.7985 39.7481H41V30H68.5133C83.2966 30 95 37.5704 95 51.9852C95 66.5037 83.2966 74.0741 68.5133 74.0741H59.0684V86.9333C59.0684 88.9037 60.3004 90.1481 62.3536 90.1481H70.0532V100H41V90.1481ZM67.692 63.9111C77.4449 63.9111 83.0913 59.763 83.0913 52.1926C83.0913 44.4148 77.4449 40.4741 67.692 40.4741H59.0684V64.0148H67.692V63.9111Z" fill="black"/>
</svg>
